<?xml version="1.0" standalone="no"?>
<!DOCTYPE svg PUBLIC "-//W3C//DTD SVG 20010904//EN"
 "http://www.w3.org/TR/2001/REC-SVG-20010904/DTD/svg10.dtd">
<svg version="1.0" xmlns="http://www.w3.org/2000/svg"
 width="540.000000pt" height="960.000000pt" viewBox="0 0 540.000000 960.000000"
 preserveAspectRatio="xMidYMid meet">

<g transform="translate(0.000000,960.000000) scale(0.100000,-0.100000)"
fill="#000000" stroke="none">
<path d="M2355 7949 c-503 -17 -971 -76 -1330 -168 -433 -111 -646 -254 -604
-405 20 -71 140 -167 277 -222 43 -16 44 -16 90 7 66 34 164 31 362 -9 155
-31 301 -55 415 -67 33 -3 141 -19 240 -35 234 -37 290 -40 725 -44 722 -7
1143 29 1580 135 182 44 226 60 540 190 157 64 297 120 312 124 l28 7 -18 30
c-136 236 -931 422 -1959 458 -303 11 -332 11 -658 -1z"/>
<path d="M84 5428 c4 -34 22 -247 41 -473 19 -225 38 -433 41 -462 l6 -52 207
-50 c740 -180 1415 -263 2256 -278 850 -14 1605 65 2290 242 94 24 200 53 237
65 62 19 68 23 72 53 9 53 87 1010 83 1014 -2 2 -30 -3 -63 -10 l-59 -14 -3
-69 c-4 -114 -32 -254 -65 -324 -58 -123 -171 -211 -270 -209 -153 2 -267 180
-267 417 0 34 -3 62 -6 62 -4 0 -72 -11 -153 -24 -1101 -184 -2059 -190 -3216
-20 -279 41 -917 150 -1108 190 l-29 6 6 -64z"/>
<path d="M1057 3529 c-21 -182 -37 -333 -35 -334 4 -4 302 -33 306 -30 1 1 11
91 21 199 11 109 21 200 23 202 6 6 316 -21 324 -28 3 -4 0 -90 -6 -191 -13
-185 -10 -231 12 -209 11 11 58 635 50 660 -2 7 -10 11 -16 9 -13 -4 -24 -76
-25 -164 l-1 -63 -37 1 c-21 1 -96 6 -168 13 -129 11 -130 11 -129 36 1 14 5
66 9 116 l7 90 -129 12 c-70 7 -137 12 -148 12 -20 0 -23 -16 -58 -331z"/>
<path d="M4342 3728 c-5 -7 -36 -62 -68 -123 -31 -60 -59 -112 -62 -115 -5 -7
-72 70 -127 145 l-44 61 -153 -13 c-84 -7 -156 -14 -160 -16 -3 -1 72 -95 168
-209 96 -114 174 -213 174 -218 0 -6 -11 -22 -25 -35 -20 -20 -34 -25 -78 -25
-64 0 -82 -20 -42 -46 31 -20 91 -11 137 19 18 12 50 49 71 82 66 103 258 477
253 491 -7 17 -30 18 -44 2z"/>
<path d="M3443 3660 c-88 -18 -172 -81 -209 -158 -10 -21 -20 -68 -22 -107 -5
-83 17 -141 75 -198 60 -61 115 -82 213 -82 71 1 95 5 142 27 72 33 148 102
148 134 0 36 -22 29 -64 -22 -65 -77 -220 -133 -253 -91 -6 6 -13 55 -17 108
l-6 96 112 7 c62 4 140 9 174 12 l61 6 -8 44 c-29 155 -186 257 -346 224z
m115 -47 c5 -10 13 -59 16 -109 l7 -92 -63 -4 c-35 -3 -64 -5 -64 -4 -1 1 -5
44 -9 97 -6 82 -5 98 10 112 23 23 91 23 103 0z"/>
<path d="M2017 3650 c-132 -34 -217 -139 -217 -270 0 -160 120 -273 290 -274
94 -1 162 27 219 89 53 58 71 104 71 184 0 114 -57 199 -167 251 -51 24 -142
33 -196 20z m178 -54 c113 -52 172 -164 146 -274 -24 -99 -130 -182 -235 -182
l-48 0 6 73 c3 39 8 147 12 240 l6 167 32 0 c17 0 54 -11 81 -24z"/>
<path d="M2882 3640 c-24 -5 -68 -20 -98 -34 l-54 -25 0 23 c0 22 -3 23 -126
30 -70 3 -130 4 -133 0 -3 -3 -8 -125 -10 -270 l-3 -264 136 0 136 0 0 213 0
213 39 22 c48 27 77 28 91 3 6 -12 10 -106 10 -235 l0 -216 123 0 c67 0 128 4
136 9 12 8 13 43 5 224 -8 195 -11 218 -30 244 -43 57 -130 82 -222 63z"/>
<path d="M393 2933 c3 -10 51 -225 107 -478 55 -253 106 -485 113 -515 12 -55
12 -55 66 -73 30 -10 134 -38 232 -63 1260 -316 2725 -295 3764 54 l110 37 17
66 c26 108 208 953 208 970 0 13 -34 7 -207 -37 -748 -192 -1401 -284 -2008
-284 -586 0 -1181 77 -2065 266 -168 36 -313 67 -323 70 -15 5 -18 2 -14 -13z"/>
</g>
</svg>
